name C:/MyDriveSym/Projects/mobilecap/Data\Session20210827_0002\mocap\ForceDataProcessed\walkingTS3_forces.mot
datacolumns 19
datarows 27
range 1.15450000 1.16750000
endheader 
time	R_ground_force_vx	R_ground_force_vy	R_ground_force_vz	R_ground_force_px	R_ground_force_py	R_ground_force_pz	R_ground_torque_x	R_ground_torque_y	R_ground_torque_z	L_ground_force_vx	L_ground_force_vy	L_ground_force_vz	L_ground_force_px	L_ground_force_py	L_ground_force_pz	L_ground_torque_x	L_ground_torque_y	L_ground_torque_z	
          1.15450000	          0.00000000	          0.00000000	          0.00000000	          1.17761100	          0.00000000	         -0.17574500	          0.00000000	          0.00000000	          0.00000000	         43.88882700	        583.45092500	         25.95210500	          0.91898600	          0.00600000	         -0.31976800	          0.00000000	          4.12617400	          0.00000000	
          1.15500000	          0.00000000	          0.00000000	          0.00000000	          1.17872900	          0.00000000	         -0.17575300	          0.00000000	          0.00000000	          0.00000000	         44.17280200	        583.86191000	         26.04496400	          0.91908600	          0.00600000	         -0.31973800	          0.00000000	          4.13221800	          0.00000000	
          1.15550000	          0.00000000	          0.00000000	          0.00000000	          1.17984700	          0.00000000	         -0.17576200	          0.00000000	          0.00000000	          0.00000000	         44.45753800	        584.27453000	         26.13794400	          0.91918700	          0.00600000	         -0.31970800	          0.00000000	          4.13823100	          0.00000000	
          1.15600000	          0.00000000	          0.00000000	          0.00000000	          1.18096500	          0.00000000	         -0.17577100	          0.00000000	          0.00000000	          0.00000000	         44.74303300	        584.68875400	         26.23103600	          0.91928700	          0.00600000	         -0.31967800	          0.00000000	          4.14421600	          0.00000000	
          1.15650000	          0.00000000	          0.00000000	          0.00000000	          1.18208400	          0.00000000	         -0.17577900	          0.00000000	          0.00000000	          0.00000000	         45.02928600	        585.10455200	         26.32423300	          0.91938700	          0.00600000	         -0.31964800	          0.00000000	          4.15017000	          0.00000000	
          1.15700000	          0.00000000	          0.00000000	          0.00000000	          1.18320200	          0.00000000	         -0.17578800	          0.00000000	          0.00000000	          0.00000000	         45.31629500	        585.52189200	         26.41752400	          0.91948700	          0.00600000	         -0.31961800	          0.00000000	          4.15609500	          0.00000000	
          1.15750000	          0.00000000	          0.00000000	          0.00000000	          1.18432000	          0.00000000	         -0.17579600	          0.00000000	          0.00000000	          0.00000000	         45.60405900	        585.94074200	         26.51090200	          0.91958800	          0.00600000	         -0.31958800	          0.00000000	          4.16199000	          0.00000000	
          1.15800000	          0.00000000	          0.00000000	          0.00000000	          1.18543800	          0.00000000	         -0.17580500	          0.00000000	          0.00000000	          0.00000000	         45.89257700	        586.36107100	         26.60435700	          0.91968800	          0.00600000	         -0.31955900	          0.00000000	          4.16785500	          0.00000000	
          1.15850000	          0.00000000	          0.00000000	          0.00000000	          1.18655600	          0.00000000	         -0.17581400	          0.00000000	          0.00000000	          0.00000000	         46.18184500	        586.78284500	         26.69788100	          0.91978800	          0.00600000	         -0.31952900	          0.00000000	          4.17369100	          0.00000000	
          1.15900000	          0.00000000	          0.00000000	          0.00000000	          1.18767400	          0.00000000	         -0.17582200	          0.00000000	          0.00000000	          0.00000000	         46.47186400	        587.20603300	         26.79146400	          0.91988800	          0.00600000	         -0.31949900	          0.00000000	          4.17949700	          0.00000000	
          1.15950000	          0.00000000	          0.00000000	          0.00000000	          1.18879300	          0.00000000	         -0.17583100	          0.00000000	          0.00000000	          0.00000000	         46.76263100	        587.63059900	         26.88509800	          0.91998900	          0.00600000	         -0.31946900	          0.00000000	          4.18527300	          0.00000000	
          1.16000000	          0.00000000	          0.00000000	          0.00000000	          1.18991100	          0.00000000	         -0.17583900	          0.00000000	          0.00000000	          0.00000000	         47.05414300	        588.05651200	         26.97877300	          0.92008900	          0.00600000	         -0.31944000	          0.00000000	          4.19102000	          0.00000000	
          1.16050000	          0.00000000	          0.00000000	          0.00000000	          1.19102900	          0.00000000	         -0.17584800	          0.00000000	          0.00000000	          0.00000000	         47.34639900	        588.48373600	         27.07248000	          0.92018900	          0.00600000	         -0.31941000	          0.00000000	          4.19673700	          0.00000000	
          1.16100000	          0.00000000	          0.00000000	          0.00000000	          1.19214700	          0.00000000	         -0.17585700	          0.00000000	          0.00000000	          0.00000000	         47.63939700	        588.91223700	         27.16621100	          0.92028900	          0.00600000	         -0.31938000	          0.00000000	          4.20242400	          0.00000000	
          1.16150000	          0.00000000	          0.00000000	          0.00000000	          1.19326500	          0.00000000	         -0.17586500	          0.00000000	          0.00000000	          0.00000000	         47.93313400	        589.34198000	         27.25995400	          0.92039000	          0.00600000	         -0.31935100	          0.00000000	          4.20808100	          0.00000000	
          1.16200000	          0.00000000	          0.00000000	          0.00000000	          1.19438300	          0.00000000	         -0.17587400	          0.00000000	          0.00000000	          0.00000000	         48.22760800	        589.77293000	         27.35370200	          0.92049000	          0.00600000	         -0.31932100	          0.00000000	          4.21370900	          0.00000000	
          1.16250000	          0.00000000	          0.00000000	          0.00000000	          1.19550200	          0.00000000	         -0.17588200	          0.00000000	          0.00000000	          0.00000000	         48.52281700	        590.20505000	         27.44744500	          0.92059000	          0.00600000	         -0.31929200	          0.00000000	          4.21930700	          0.00000000	
          1.16300000	          0.00000000	          0.00000000	          0.00000000	          1.19662000	          0.00000000	         -0.17589100	          0.00000000	          0.00000000	          0.00000000	         48.81875700	        590.63830600	         27.54117300	          0.92069000	          0.00600000	         -0.31926200	          0.00000000	          4.22487500	          0.00000000	
          1.16350000	          0.00000000	          0.00000000	          0.00000000	          1.19773800	          0.00000000	         -0.17590000	          0.00000000	          0.00000000	          0.00000000	         49.11542800	        591.07265900	         27.63487600	          0.92079100	          0.00600000	         -0.31923200	          0.00000000	          4.23041400	          0.00000000	
          1.16400000	          0.00000000	          0.00000000	          0.00000000	          1.19885600	          0.00000000	         -0.17590800	          0.00000000	          0.00000000	          0.00000000	         49.41282500	        591.50807400	         27.72854500	          0.92089100	          0.00600000	         -0.31920300	          0.00000000	          4.23592300	          0.00000000	
          1.16450000	          0.00000000	          0.00000000	          0.00000000	          1.19997400	          0.00000000	         -0.17591700	          0.00000000	          0.00000000	          0.00000000	         49.71094600	        591.94451200	         27.82217000	          0.92099100	          0.00600000	         -0.31917300	          0.00000000	          4.24140300	          0.00000000	
          1.16500000	          0.00000000	          0.00000000	          0.00000000	          1.20109200	          0.00000000	         -0.17592500	          0.00000000	          0.00000000	          0.00000000	         50.00978800	        592.38193600	         27.91574100	          0.92109100	          0.00600000	         -0.31914400	          0.00000000	          4.24685300	          0.00000000	
          1.16550000	          0.00000000	          0.00000000	          0.00000000	          1.20221100	          0.00000000	         -0.17593400	          0.00000000	          0.00000000	          0.00000000	         50.30934800	        592.82030900	         28.00924900	          0.92119200	          0.00600000	         -0.31911400	          0.00000000	          4.25227400	          0.00000000	
          1.16600000	          0.00000000	          0.00000000	          0.00000000	          1.20332900	          0.00000000	         -0.17594300	          0.00000000	          0.00000000	          0.00000000	         50.60962400	        593.25959100	         28.10268300	          0.92129200	          0.00600000	         -0.31908500	          0.00000000	          4.25766600	          0.00000000	
          1.16650000	          0.00000000	          0.00000000	          0.00000000	          1.20444700	          0.00000000	         -0.17595100	          0.00000000	          0.00000000	          0.00000000	         50.91061100	        593.69974300	         28.19603400	          0.92139200	          0.00600000	         -0.31905500	          0.00000000	          4.26302800	          0.00000000	
          1.16700000	          0.00000000	          0.00000000	          0.00000000	          1.20556500	          0.00000000	         -0.17596000	          0.00000000	          0.00000000	          0.00000000	         51.21230800	        594.14072700	         28.28929100	          0.92149200	          0.00600000	         -0.31902600	          0.00000000	          4.26836100	          0.00000000	
          1.16750000	          0.00000000	          0.00000000	          0.00000000	          1.20668300	          0.00000000	         -0.17596800	          0.00000000	          0.00000000	          0.00000000	         51.51470900	        594.58250300	         28.38244400	          0.92159300	          0.00600000	         -0.31899700	          0.00000000	          4.27366500	          0.00000000	
